# xmcd CD database file
#
# Track frame offsets:
#	150
#	21770
#	32856
#	50570
#	67212
#	81315
#	104356
#	127420
#	143281
#	147872
#	159488
#	185611
#	206588
#	228260
#	249542
#	262024
#	270586
#	294415
#
# Disc length: 4306 seconds
#
# Revision: 1
# Processed by: cddbd v1.5.2PL0 Copyright (c) Steve Scherf et al.
# Submitted via: CDex 1.51
#
DISCID=1210d012
DTITLE=Didier Lockwood, Dee Dee Bridgewater, Martial Solal, Daniel Humair, Romane, André Ceccarelli, Martin Taylor - For Stéphane
DYEAR=2008
DGENRE=Jazz
TTITLE0=Night and Day
TTITLE1=Tea for Two
TTITLE2=The end of a lovve affair (Radio edit)
TTITLE3=Valse du Passé
TTITLE4=C'est si bon
TTITLE5=Just one of those things
TTITLE6=Someone to watch over me
TTITLE7=More (ti gardero nel cuore)
TTITLE8=Mouvement perpétuel
TTITLE9=Tiger rag
TTITLE10=Miss Otis Regrets (She's unable to lunch today) - A Nightingale sang in Berckele...
TTITLE11=I'll remember april
TTITLE12=Honeysuckle rose
TTITLE13=As time goes by
TTITLE14=Sweet Georgia Brown
TTITLE15=Jazzuero
TTITLE16=La méditation de Thaïs
TTITLE17=The end of a love affair
EXTD=YEAR: 2008
EXTT0=
EXTT1=
EXTT2=
EXTT3=
EXTT4=
EXTT5=
EXTT6=
EXTT7=
EXTT8=
EXTT9=
EXTT10=
EXTT11=
EXTT12=
EXTT13=
EXTT14=
EXTT15=
EXTT16=
EXTT17=
PLAYORDER=
